<?xml version="1.0" encoding="UTF-8" standalone="no"?>
<svg
   xmlns:dc="http://purl.org/dc/elements/1.1/"
   xmlns:cc="http://creativecommons.org/ns#"
   xmlns:rdf="http://www.w3.org/1999/02/22-rdf-syntax-ns#"
   xmlns:svg="http://www.w3.org/2000/svg"
   xmlns="http://www.w3.org/2000/svg"
   id="svg2"
   height="300"
   width="416"
   version="1.1">
  <metadata
     id="metadata3359">
    <rdf:RDF>
      <cc:Work
         rdf:about="">
        <dc:format>image/svg+xml</dc:format>
        <dc:type
           rdf:resource="http://purl.org/dc/dcmitype/StillImage" />
        <dc:title></dc:title>
      </cc:Work>
    </rdf:RDF>
  </metadata>
  <defs
     id="defs7" />
  <g
     style="fill:#e9e9e9;stroke:#000000;stroke-width:1.2114164829"
     id="g1357"
     transform="matrix(2.476439697096727,0,0,2.476439697096727,-113.8906831443609,-50.07759708888216)">
    <path
       style="fill:#ede4bc;fill-opacity:1"
       id="path1149"
       d="m 203.5598124657662,72.2011023993635 -3.8968025923639,-3.82723701806781 c -10.0819709783575,10.21051695714731 -19.9582988606304,20.543940265513 -31.6695469063015,28.002829976697 -4.1890488292751,2.67486452627139 -8.6427866556949,4.8889993878895 -13.3020194596541,6.3484697627193 -4.7165896176375,1.4920700656084 -14.7500292011615,2.4914924882446 -14.7500292011615,2.4914924882446 l 0.2869242045358,5.6289044329127 3.4099045e-6,-5.872539e-7 c 5.4198884434427,-0.2763083464884 10.8762108371651,-1.1157676111615 16.1505330985825,-2.7814081179537 5.2071915783612,-1.6588948919061 10.0991862807765,-4.0922121347776 14.6188621986987,-7.0056072039769 12.4016509221832,-8.01400017146929 22.5684665781265,-18.62747831475489 32.5620752477595,-28.85744373332106 z" />
    <path
       style="fill:#ede4bc;fill-opacity:1"
       id="path1141"
       d="m 104.3902835277808,35.25 c -7.83894370278341,7.67548487184021 -12.6441161412826,18.51915840042261 -12.43750000000004,29.5 0.14178265232954,7.5351946713123 1.89998246768721,14.495117219261 4.90625,20.28125 -9.55905816116787,-8.0029946572018 -15.14009418538207,-18.63783822708751 -14.5,-31.40625 l -33.15625,27.1875 c 10.00770926947395,2.6768624351005 20.57778556192123,7.16918218057369 29.125,13 11.65426355738032,7.9504133323158 24.37911288943815,14.2846809222868 37.34375000000004,17 12.2236624580232,2.4001497093288 24.76060009006,1.8348019077466 34.96875,-3.84375 10.2038429201019,-5.6761560313561 17.6355337787274,-14.7952329721728 21.65625,-24.71875 2.087364784879,-5.2495123061093 3.3886957651526,-11.14041989911399 3.34375,-17.46875 -0.3989871003469,-11.41802093361909 -5.2268743145035,-22.24229684210829 -12.625,-29.59375 -16.9676489906979,-16.8606052475154 -42.1344950018867,-16.08414251219091 -58.625,0.0625 z m 54.21875,4.34375 c 6.7020860466011,6.86501997623509 10.2517551038447,16.24818732655351 10.09375,25.1875 -0.09489166974,4.8839300692262 -1.2632084658532,9.7046801193076 -3.1875,14.09375 -4.0857701798555,8.82106912708819 -10.9082540320019,16.0102909883701 -19.25,19.6875 -9.3652862215486,4.1284060941785 -19.9185946798914,2.6126405782811 -28.59375,-0.71875 -1.678577781579,-0.65514825193461 -3.3093975866201,-1.38515852495151 -4.875,-2.15625 -0.50260548642,-0.40666903308031 -1.015371000843,-0.79111494029721 -1.5,-1.21875 -4.1468913138072,-3.66673316243892 -7.6216507733913,-8.12709499113031 -10,-13.0625 -2.48913184976601,-5.148213606394 -3.75981039823047,-10.88804447578882 -3.6875,-16.59375 0.11951796347188,-9.43065342071259 3.7726460535589,-19.20976502856359 10.84375,-25.46875 15.7317078685952,-13.92491524242451 36.5144479047055,-13.72344696037291 50.15625,0.25 z" />
    <path
       id="path1158"
       d="m 96.85903352778075,85.03125 c 5.01349800812795,3.75582841680369 10.30157528042685,7.5084475661328 15.93750000000004,10.65625" />
    <rect
       style="fill:#ede4bc;fill-opacity:1"
       id="rect1185"
       y="110.6636428833008"
       x="125.7929306030273"
       height="12.36020755767822"
       width="2.360207319259644" />
    <rect
       style="fill:#ede4bc;fill-opacity:1"
       id="rect1198"
       y="110.6636428833008"
       x="137.7929382324219"
       height="12.36020755767822"
       width="2.360207319259644" />
    <rect
       style="fill:#a32c6a;fill-opacity:1"
       id="rect1165"
       y="97.44564056396484"
       x="121.0146102905273"
       ry="2.725805044174194"
       rx="2.941173791885376"
       height="15.90134239196777"
       width="3.986137628555298" />
    <rect
       style="fill-opacity:1;fill:#a32c6a"
       id="rect1167"
       y="97.44564056396484"
       x="125.0007553100586"
       ry="2.725805044174194"
       rx="2.941173791885376"
       height="15.90134239196777"
       width="3.986137628555298" />
    <rect
       style="fill:#a32c6a;fill-opacity:1"
       id="rect1169"
       y="97.44564056396484"
       x="128.9869079589844"
       ry="2.725805044174194"
       rx="2.941173791885376"
       height="15.90134239196777"
       width="3.986137628555298" />
    <rect
       style="fill:#a32c6a;fill-opacity:1"
       id="rect1171"
       y="97.44564056396484"
       x="132.9730529785156"
       ry="2.725805044174194"
       rx="2.941173791885376"
       height="15.90134239196777"
       width="3.986137628555298" />
    <rect
       style="fill:#a32c6a;fill-opacity:1"
       id="rect1173"
       y="97.44564056396484"
       x="136.9591979980469"
       ry="2.725805044174194"
       rx="2.941173791885376"
       height="15.90134239196777"
       width="3.986137628555298" />
    <rect
       style="fill:#a32c6a;fill-opacity:1"
       id="rect1175"
       y="97.04843139648438"
       x="140.9453430175781"
       ry="2.725805044174194"
       rx="2.941173791885376"
       height="15.90134239196777"
       width="3.986137628555298" />
    <rect
       style="fill:#ede4bc;fill-opacity:1"
       id="rect1187"
       y="125.0812911987305"
       x="124.3043441772461"
       height="13.64992427825928"
       width="5.337422370910645" />
    <rect
       style="fill:#ede4bc;fill-opacity:1"
       id="rect1189"
       transform="matrix(0,-1,1,0,0,0)"
       y="123.1282577514648"
       x="-126.2823104858398"
       ry="1"
       rx="1"
       height="7.689605712890625"
       width="4.25210428237915" />
    <rect
       style="fill:#ede4bc;fill-opacity:1"
       id="rect1200"
       y="125.0812911987305"
       x="136.3043518066406"
       height="13.64992427825928"
       width="5.337422370910645" />
    <rect
       style="fill:#ede4bc;fill-opacity:1"
       id="rect1202"
       transform="matrix(0,-1,1,0,0,0)"
       y="135.1282653808594"
       x="-126.2823104858398"
       ry="1"
       rx="1"
       height="7.689605712890625"
       width="4.25210428237915" />
    <path
       style="fill:#ede4bc;fill-opacity:1"
       id="path1271"
       d="m 197.1554998180158,60.8520176585098 c -1.0116424893514,2.57064902239449 -1.2120438773335,5.05589865777765 -1.1973366614325,7.53324316151245 -1.489715846052,0.80357505784957 -2.5113561971817,2.01817257903906 -2.5942294331036,4.04101123233454 -1.8019338010927,1.3798558421412 -2.1027788620184,2.92763784914473 -2.4445623504246,4.4900124803719 l 1.9955611023874,1.99556110238746 2.0205056161674,2.02050561616727 c 1.5623746312272,-0.34178348840635 3.1101566382304,-0.64262854933226 4.4900124803717,-2.44456235042469 2.0228386532955,-0.0828732359219 3.2124916607052,-1.12945810083147 4.0160667185548,-2.61917394688351 2.4773445037346,0.0147072159007 4.9625941391179,-0.18569417208141 7.5332431615125,-1.19733666143236 l -6.9096303170165,-6.90963031701655 -6.9096303170165,-6.90963031701651 z" />
    <path
       id="path1278"
       d="m 195.9581631565833,68.38526082002225 7.4833541339529,7.48335413395297" />
    <path
       id="path1280"
       d="m 193.3639337234796,72.42627205235679 6.0615168485019,6.06151684850194" />
  </g>
</svg>
