<svg xmlns="http://www.w3.org/2000/svg" width="405.53" height="289.5" viewBox="0 0 405.53 289.5"><defs><style>.a{fill:#e6dbb3;}.a,.b,.c{stroke:#000;stroke-width:2.5px;}.b{fill:#e9e9e9;}.c{fill:#a5154d;}</style></defs><title>horn</title><path class="a" d="M390.21,128.72l-9.65-9.47c-25,25.28-49.42,50.87-78.42,69.34a138.77,138.77,0,0,1-32.95,15.73c-11.68,3.69-36.52,6.17-36.52,6.17l.71,13.93h0a159.67,159.67,0,0,0,40-6.88,152.63,152.63,0,0,0,36.2-17.35C340.29,180.34,365.46,154.06,390.21,128.72Z" transform="translate(-5.28 -5.23)"/><path class="a" d="M144.63,37.22c-19.42,19-31.32,45.86-30.81,73.05.36,18.66,4.71,35.9,12.15,50.23-23.67-19.82-37.49-46.16-35.9-77.78L8,150.05c24.78,6.63,51,17.75,72.12,32.19,28.86,19.69,60.38,35.38,92.48,42.1,30.27,5.95,61.32,4.55,86.6-9.52s43.67-36.64,53.63-61.21a114.67,114.67,0,0,0,8.28-43.26c-1-28.28-12.94-55.08-31.26-73.29-42-41.75-104.35-39.83-145.18.16ZM278.9,48a88.46,88.46,0,0,1,25,62.38,91.92,91.92,0,0,1-7.89,34.9C285.88,167.1,269,184.9,248.33,194c-23.2,10.22-49.33,6.47-70.81-1.78-4.16-1.63-8.2-3.43-12.08-5.34-1.24-1-2.51-2-3.71-3A103.74,103.74,0,0,1,137,151.52a92.24,92.24,0,0,1-9.13-41.09c.3-23.36,9.34-47.58,26.86-63.08C193.64,12.87,245.11,13.37,278.9,48Z" transform="translate(-5.28 -5.23)"/><path class="b" d="M126,160.5c12.42,9.3,25.52,18.59,39.47,26.39" transform="translate(-5.28 -5.23)"/><rect class="a" x="192.35" y="218.74" width="5.84" height="30.61"/><rect class="a" x="222.06" y="218.74" width="5.84" height="30.61"/><path class="c" d="M190.73,191.24h0c2.73,0,4.94,3,4.94,6.75v25.88c0,3.73-2.21,6.75-4.94,6.75h0c-2.73,0-4.94-3-4.94-6.75V198C185.79,194.26,188,191.24,190.73,191.24Z" transform="translate(-5.28 -5.23)"/><path class="c" d="M200.6,191.24h0c2.73,0,4.94,3,4.94,6.75v25.88c0,3.73-2.21,6.75-4.94,6.75h0c-2.72,0-4.93-3-4.93-6.75V198C195.67,194.26,197.88,191.24,200.6,191.24Z" transform="translate(-5.28 -5.23)"/><path class="c" d="M210.47,191.24h0c2.73,0,4.94,3,4.94,6.75v25.88c0,3.73-2.21,6.75-4.94,6.75h0c-2.72,0-4.93-3-4.93-6.75V198C205.54,194.26,207.75,191.24,210.47,191.24Z" transform="translate(-5.28 -5.23)"/><path class="c" d="M220.34,191.24h0c2.73,0,4.94,3,4.94,6.75v25.88c0,3.73-2.21,6.75-4.94,6.75h0c-2.72,0-4.93-3-4.93-6.75V198C215.41,194.26,217.62,191.24,220.34,191.24Z" transform="translate(-5.28 -5.23)"/><path class="c" d="M230.22,191.24h0c2.72,0,4.93,3,4.93,6.75v25.88c0,3.73-2.21,6.75-4.93,6.75h0c-2.73,0-4.94-3-4.94-6.75V198C225.28,194.26,227.49,191.24,230.22,191.24Z" transform="translate(-5.28 -5.23)"/><path class="c" d="M240.09,190.26h0c2.72,0,4.93,3,4.93,6.75v25.88c0,3.72-2.21,6.75-4.93,6.75h0c-2.73,0-4.94-3-4.94-6.75V197C235.15,193.28,237.36,190.26,240.09,190.26Z" transform="translate(-5.28 -5.23)"/><rect class="a" x="188.66" y="254.45" width="13.22" height="33.8"/><rect class="a" x="185.75" y="246.89" width="19.04" height="10.53" rx="2.48" ry="2.48"/><rect class="a" x="218.38" y="254.45" width="13.22" height="33.8"/><rect class="a" x="215.47" y="246.89" width="19.04" height="10.53" rx="2.48" ry="2.48"/><path class="a" d="M374.35,100.62c-2.5,6.36-3,12.52-3,18.65-3.69,2-6.22,5-6.43,10-4.46,3.42-5.2,7.25-6,11.12l4.94,4.94,5,5c3.86-.85,7.7-1.59,11.11-6.06,5-.2,8-2.79,9.95-6.48,6.13,0,12.29-.46,18.66-3l-17.12-17.11-17.11-17.11Z" transform="translate(-5.28 -5.23)"/><path class="b" d="M371.39,119.27l18.53,18.54" transform="translate(-5.28 -5.23)"/><path class="b" d="M365,129.28l15,15" transform="translate(-5.28 -5.23)"/></svg>