<?xml version="1.0" encoding="utf-8"?>
<!-- Generator: Adobe Illustrator 22.0.1, SVG Export Plug-In . SVG Version: 6.00 Build 0)  -->
<svg version="1.1"
	 id="svg2" xmlns:cc="http://creativecommons.org/ns#" xmlns:dc="http://purl.org/dc/elements/1.1/" xmlns:rdf="http://www.w3.org/1999/02/22-rdf-syntax-ns#" xmlns:svg="http://www.w3.org/2000/svg"
	 xmlns="http://www.w3.org/2000/svg" xmlns:xlink="http://www.w3.org/1999/xlink" x="0px" y="0px" viewBox="0 0 416 300"
	 style="enable-background:new 0 0 416 300;" xml:space="preserve">
<style type="text/css">
	.st0{fill:#E6DBB3;stroke:#000000;stroke-width:1.2114;}
	.st1{fill:#E9E9E9;stroke:#000000;stroke-width:1.2114;}
	.st2{fill:#A5154D;stroke:#000000;stroke-width:1.2114;}
</style>
<g id="g1357" transform="matrix(2.476439697096727,0,0,2.476439697096727,-113.8906831443609,-50.07759708888216)">
	<path id="path1149" class="st0" d="M203.6,72.2l-3.9-3.8c-10.1,10.2-20,20.5-31.7,28c-4.2,2.7-8.6,4.9-13.3,6.3
		c-4.7,1.5-14.8,2.5-14.8,2.5l0.3,5.6l0,0c5.4-0.3,10.9-1.1,16.2-2.8c5.2-1.7,10.1-4.1,14.6-7C183.4,93,193.6,82.4,203.6,72.2z"/>
	<path id="path1141" class="st0" d="M104.4,35.2C96.6,42.9,91.7,53.8,92,64.7c0.1,7.5,1.9,14.5,4.9,20.3c-9.6-8-15.1-18.6-14.5-31.4
		L49.2,80.8c10,2.7,20.6,7.2,29.1,13c11.7,8,24.4,14.3,37.3,17c12.2,2.4,24.8,1.8,35-3.8c10.2-5.7,17.6-14.8,21.7-24.7
		c2.1-5.2,3.4-11.1,3.3-17.5c-0.4-11.4-5.2-22.2-12.6-29.6C146,18.3,120.9,19.1,104.4,35.2L104.4,35.2z M158.6,39.6
		c6.7,6.9,10.3,16.2,10.1,25.2c-0.1,4.9-1.3,9.7-3.2,14.1c-4.1,8.8-10.9,16-19.3,19.7c-9.4,4.1-19.9,2.6-28.6-0.7
		c-1.7-0.7-3.3-1.4-4.9-2.2c-0.5-0.4-1-0.8-1.5-1.2c-4.1-3.7-7.6-8.1-10-13.1c-2.5-5.1-3.8-10.9-3.7-16.6
		c0.1-9.4,3.8-19.2,10.8-25.5C124.2,25.4,145,25.6,158.6,39.6z"/>
	<path id="path1158" class="st1" d="M96.9,85c5,3.8,10.3,7.5,15.9,10.7"/>
	<rect id="rect1185" x="125.8" y="110.7" class="st0" width="2.4" height="12.4"/>
	<rect id="rect1198" x="137.8" y="110.7" class="st0" width="2.4" height="12.4"/>
	<path id="rect1165" class="st2" d="M123,97.4L123,97.4c1.1,0,2,1.2,2,2.7v10.4c0,1.5-0.9,2.7-2,2.7h0c-1.1,0-2-1.2-2-2.7v-10.4
		C121,98.7,121.9,97.4,123,97.4z"/>
	<path id="rect1167" class="st2" d="M127,97.4L127,97.4c1.1,0,2,1.2,2,2.7v10.4c0,1.5-0.9,2.7-2,2.7h0c-1.1,0-2-1.2-2-2.7v-10.4
		C125,98.7,125.9,97.4,127,97.4z"/>
	<path id="rect1169" class="st2" d="M131,97.4L131,97.4c1.1,0,2,1.2,2,2.7v10.4c0,1.5-0.9,2.7-2,2.7l0,0c-1.1,0-2-1.2-2-2.7v-10.4
		C129,98.7,129.9,97.4,131,97.4z"/>
	<path id="rect1171" class="st2" d="M135,97.4L135,97.4c1.1,0,2,1.2,2,2.7v10.4c0,1.5-0.9,2.7-2,2.7l0,0c-1.1,0-2-1.2-2-2.7v-10.4
		C133,98.7,133.9,97.4,135,97.4z"/>
	<path id="rect1173" class="st2" d="M139,97.4L139,97.4c1.1,0,2,1.2,2,2.7v10.4c0,1.5-0.9,2.7-2,2.7l0,0c-1.1,0-2-1.2-2-2.7v-10.4
		C137,98.7,137.9,97.4,139,97.4z"/>
	<path id="rect1175" class="st2" d="M142.9,97L142.9,97c1.1,0,2,1.2,2,2.7v10.4c0,1.5-0.9,2.7-2,2.7l0,0c-1.1,0-2-1.2-2-2.7V99.8
		C140.9,98.3,141.8,97,142.9,97z"/>
	<rect id="rect1187" x="124.3" y="125.1" class="st0" width="5.3" height="13.6"/>
	<path id="rect1189" class="st0" d="M123.1,125.3V123c0-0.6,0.4-1,1-1h5.7c0.6,0,1,0.4,1,1v2.3c0,0.6-0.4,1-1,1h-5.7
		C123.6,126.3,123.1,125.8,123.1,125.3z"/>
	<rect id="rect1200" x="136.3" y="125.1" class="st0" width="5.3" height="13.6"/>
	<path id="rect1202" class="st0" d="M135.1,125.3V123c0-0.6,0.4-1,1-1h5.7c0.6,0,1,0.4,1,1v2.3c0,0.6-0.4,1-1,1h-5.7
		C135.6,126.3,135.1,125.8,135.1,125.3z"/>
	<path id="path1271" class="st0" d="M197.2,60.9c-1,2.6-1.2,5.1-1.2,7.5c-1.5,0.8-2.5,2-2.6,4c-1.8,1.4-2.1,2.9-2.4,4.5l2,2l2,2
		c1.6-0.3,3.1-0.6,4.5-2.4c2-0.1,3.2-1.1,4-2.6c2.5,0,5-0.2,7.5-1.2l-6.9-6.9L197.2,60.9L197.2,60.9z"/>
	<path id="path1278" class="st1" d="M196,68.4l7.5,7.5"/>
	<path id="path1280" class="st1" d="M193.4,72.4l6.1,6.1"/>
</g>
</svg>
