<svg version="1" xmlns="http://www.w3.org/2000/svg" width="1333.333" height="1333.333" viewBox="0 0 1000.000000 1000.000000"><path d="M0 500v500h1000V0H0v500zm641.3-327.3c9.5 4.6 29.2 17.6 38.9 25.7 10.5 8.9 15.8 18.5 13.9 25.3-.5 1.7-16.5 26-35.5 54.1-19.1 28.2-34.9 51.7-35.1 52.4-.3.8 20.5 15.5 55.5 39.2 30.8 20.8 57.1 39.1 58.4 40.7 5.2 6.2 3.8 16.7-4.1 30.4-9.6 16.9-20.3 28.8-29 32.7-9.1 4-7.3 5-68.8-36.6-30.6-20.7-56.2-37.9-56.9-38.2-.8-.3-29.6 41.3-80.7 116.7-43.7 64.4-83.3 123.3-88.1 130.7-21 32.5-30.9 61.5-27.9 81.1 2.5 16.2 12.2 30 29.4 42.2 13.7 9.6 29.8 16.2 51 20.8 17.2 3.7 20.3 6.1 19.5 14.9-1.3 13.7-25 47.2-38 53.8-18.4 9.3-68.6-10.4-108.8-42.7-30.8-24.8-49.6-54.2-54-84.8-1.6-10.3-.8-29.7 1.5-40.6 4.5-21.5 18.8-54.4 34.2-78.7 3.7-6 36.7-55 73.3-109 36.6-54 75.8-112 87.2-128.9l20.7-30.6-31.5-21.2c-17.3-11.7-32.2-22.4-33.2-23.9-2.8-4.3-2.3-16.2 1.1-23.7 7.6-16.5 24.5-36.3 34.1-40 4.1-1.6 5-1.6 8.8-.3 2.4.7 17.6 10.4 33.8 21.4 16.2 11 30 20.3 30.7 20.7.8.5 12.9-16.6 35.4-49.9 36.1-53.3 38-56.1 41.3-57.5 4.5-1.9 14.3-.3 22.9 3.8z"/></svg>